<svg width="1608" height="266" viewBox="0 0 1608 266" fill="none" xmlns="http://www.w3.org/2000/svg">
<rect width="1608" height="266" fill="white"/>
<circle cx="132" cy="133" r="124" fill="#6600CC"/>
<ellipse cx="132" cy="180.5" rx="91" ry="70.5" fill="white"/>
<path d="M404.195 38.3102C379.426 41.4316 357.174 52.9099 343.379 69.624C332.606 82.7134 325.457 98.4207 322.638 115.739C316.798 151.282 323.242 183.099 340.762 205.049C352.643 220.051 368.551 229.919 390.098 235.859C397.147 237.772 400.671 238.074 418.794 238.074C442.758 238.074 449.907 236.665 465.614 229.012C482.228 220.957 494.209 208.673 502.868 190.751C506.795 182.696 511.427 168.902 511.427 165.378C511.427 164.371 507.299 164.069 493.303 164.069H475.28L474.173 168.298C469.34 187.328 457.66 198.504 436.918 204.042C427.957 206.458 407.719 206.458 398.657 204.042C377.21 198.303 363.114 183.2 357.677 160.343C355.16 149.57 355.16 124.096 357.677 114.732C363.718 92.4801 377.412 78.3839 398.758 72.846C407.92 70.3289 428.058 70.4295 437.422 72.846C446.987 75.3632 455.344 79.6928 461.285 85.3313C467.426 91.0705 470.447 96.2055 472.763 104.361L474.475 110.705H492.498H510.521L509.816 106.878C509.514 104.865 508.306 100.434 507.198 97.1117C493.202 54.7223 453.632 32.1683 404.195 38.3102Z" fill="black"/>
<path d="M1350.96 83.2208L1350.66 125.308L1347.84 119.569C1342 107.587 1328.1 97.015 1315.01 94.5985C1302.23 92.182 1285.21 94.1958 1274.64 99.3308C1266.38 103.358 1256.61 113.528 1252.28 122.791C1245.24 137.592 1242.22 158.535 1244.23 178.874C1246.34 199.918 1251.38 213.309 1261.15 223.579C1272.02 234.856 1284.2 238.984 1304.84 238.38C1316.93 238.078 1317.83 237.877 1325.28 234.252C1334.14 230.124 1343.51 221.868 1347.74 214.618C1350.96 209.181 1350.66 208.778 1354.28 224.687L1356.7 235.561H1372.1H1387.41V138.398V41.2341H1369.28H1351.16L1350.96 83.2208ZM1326.39 126.315C1336.36 128.933 1342.5 134.571 1347.03 145.244C1349.45 151.084 1349.65 152.595 1349.65 166.59C1349.65 179.982 1349.35 182.398 1347.23 187.533C1343.71 196.494 1339.48 201.327 1331.63 205.355C1325.08 208.677 1324.18 208.879 1314.51 208.879C1301.82 208.879 1295.78 206.966 1289.74 201.025C1281.99 193.373 1278.66 183.204 1278.66 166.691C1278.66 156.723 1280.58 147.057 1283.6 141.116C1285.61 137.29 1291.75 130.947 1295.68 128.933C1303.03 125.006 1316.72 123.798 1326.39 126.315Z" fill="black"/>
<path d="M855.777 63.5805C855.777 71.2327 853.361 82.9125 851.247 86.2351C848.629 90.162 843.796 92.4778 836.445 93.1826L829.498 93.8874L829.8 106.071L830.102 118.254L840.876 118.556L851.649 118.858L851.951 166.382C852.253 213.605 852.253 213.907 854.569 218.941C860.913 232.635 868.464 235.555 897.865 235.555H917.197V221.962V208.369L900.885 208.168L884.473 207.866L884.171 163.362L883.97 118.757L900.281 118.556L916.693 118.254L916.995 105.869L917.298 93.5853H900.583H883.97V75.4616V57.3378H869.874H855.777V63.5805Z" fill="black"/>
<path d="M990.197 93.184C967.945 96.8088 952.439 106.374 942.169 122.786C934.114 135.573 930.892 148.159 930.993 166.082C931.093 181.084 933.208 190.247 939.45 203.235C947.606 220.05 964.32 233.341 982.142 237.066C991.707 239.08 1011.04 238.979 1020.2 236.966C1043.26 231.73 1060.07 216.123 1065.61 194.576C1066.52 191.153 1067.22 187.931 1067.22 187.327C1067.22 186.521 1061.99 186.219 1050.31 186.219H1033.39L1031.08 191.757C1028.46 198 1022.92 203.537 1015.97 206.759C1012.15 208.471 1009.43 208.874 1000.27 208.874C990.499 208.874 988.586 208.572 984.156 206.357C972.879 200.92 965.931 189.945 964.824 175.949L964.219 169.102H1015.77H1067.22V159.738C1067.22 143.024 1062.39 128.525 1053.23 116.946C1045.27 106.978 1032.38 98.6211 1019.3 95.1978C1013.25 93.4861 995.634 92.3785 990.197 93.184ZM1014.87 124.699C1023.02 128.928 1027.55 134.567 1030.37 143.931C1033.29 153.899 1036.51 152.992 998.655 152.992H965.226L965.83 149.468C967.643 138.393 976.403 127.015 985.867 123.692C993.62 120.873 1008.52 121.377 1014.87 124.699Z" fill="black"/>
<path d="M576.371 95.0991C568.215 96.8107 558.348 100.536 552.408 104.362C541.03 111.41 531.263 125.205 526.329 140.912C524.215 147.658 524.014 150.377 524.014 166.587C524.014 184.51 524.114 184.812 527.437 194.578C529.35 200.015 532.572 207.064 534.586 210.185C543.044 223.274 559.053 233.846 575.062 237.068C585.232 239.082 604.966 239.082 614.934 236.968C643.429 231.229 661.452 210.084 665.58 177.663C667.695 160.647 665.077 143.228 658.431 129.333C650.175 112.216 636.985 101.241 618.559 96.1059C610.202 93.7901 585.634 93.186 576.371 95.0991ZM606.577 122.184C613.928 124.097 617.452 126.211 622.083 131.447C627.42 137.488 630.038 144.939 631.447 157.425C632.454 165.983 632.353 169.104 630.944 177.461C629.031 188.537 626.614 194.075 621.278 199.613C614.33 206.963 603.859 210.185 590.266 208.977C568.215 207.164 557.744 193.068 557.744 165.077C557.744 140.207 566.302 125.909 583.52 121.882C589.461 120.472 600.939 120.674 606.577 122.184Z" fill="black"/>
<path d="M684.611 164.57V235.555H702.131H719.651L720.154 195.985C720.557 163.664 720.96 155.307 722.268 149.97C726.699 132.853 737.07 124.798 754.589 124.798C773.116 124.798 781.775 133.86 784.292 155.81C784.795 160.643 785.299 180.579 785.299 200.012V235.555H802.516H819.734L819.23 188.433C818.828 145.641 818.626 140.606 816.713 132.149C813.089 115.938 805.235 104.56 793.454 98.7204C786.104 94.995 779.157 93.5853 768.383 93.5853C748.548 93.5853 733.545 101.64 724.484 117.146C722.369 120.771 720.456 123.792 720.355 123.792C720.154 123.792 718.845 116.945 717.234 108.688L714.415 93.5853H699.513H684.611V164.57Z" fill="black"/>
<path d="M1087.36 164.57V235.555H1105.38H1123.51L1123.81 194.474C1124.21 155.508 1124.31 153.192 1126.43 146.849C1131.26 132.35 1139.82 125.805 1155.12 125C1160.46 124.698 1165.7 125 1168.41 125.805C1173.95 127.316 1180.4 132.753 1183.12 138.089C1187.44 146.547 1188.05 153.192 1188.05 195.481V235.555H1205.77H1223.59L1222.99 189.943C1222.38 137.686 1221.68 131.645 1215.23 118.153C1207.18 101.439 1193.39 93.5853 1171.84 93.5853C1161.37 93.5853 1154.72 95.0956 1146.46 99.3245C1138.61 103.453 1129.45 112.716 1126.33 119.764C1123.81 125.403 1123.51 124.798 1120.59 108.688C1119.38 102.345 1118.27 96.3039 1117.97 95.297C1117.47 93.7867 1115.86 93.5853 1102.36 93.5853H1087.36V164.57Z" fill="black"/>
<path d="M1441.78 95.2032C1425.07 99.7341 1412.98 114.032 1407.45 135.881C1404.73 146.755 1403.72 173.941 1405.43 186.426C1406.94 196.898 1411.78 211.397 1415.7 217.639C1421.95 227.406 1431.31 234.152 1442.49 237.072C1449.74 238.985 1467.76 238.985 1474.71 237.173C1486.28 234.051 1497.46 225.996 1502.9 216.632L1505.52 212.101L1506.82 216.532C1507.63 218.948 1508.94 224.285 1509.95 228.211L1511.66 235.562H1527.06H1542.47V164.577V93.5922H1524.34H1506.32L1506.02 107.89L1505.72 122.288L1502.6 116.75C1496.45 105.977 1486.39 98.2238 1474.5 95.1025C1466.95 93.1894 1449.23 93.1894 1441.78 95.2032ZM1490.31 128.128C1499.27 133.364 1503.5 141.721 1505.31 157.629C1507.23 175.048 1503.7 192.467 1496.45 200.321C1490.61 206.866 1485.28 208.779 1472.99 208.779C1463.43 208.879 1461.92 208.577 1456.68 206.06C1447.32 201.429 1442.99 194.985 1440.17 181.09C1437.35 167.195 1439.47 147.259 1444.6 139.002C1447.12 134.773 1452.15 129.84 1455.37 128.128C1460.81 125.309 1463.23 124.906 1474.5 125.107C1484.57 125.309 1485.98 125.611 1490.31 128.128Z" fill="black"/>
<path d="M1573.38 194.174C1568.35 195.181 1564.62 198.001 1561.9 202.934C1557.27 211.09 1559.69 227.905 1566.13 232.134C1570.36 234.852 1579.12 236.06 1585.56 234.752C1595.13 232.838 1599.86 225.79 1599.86 213.909C1599.76 205.25 1596.54 198.705 1590.8 195.785C1587.48 194.074 1578.21 193.268 1573.38 194.174Z" fill="#6600CC"/>
</svg>
